<?xml version="1.0" encoding="UTF-8" standalone="no"?>
<svg
   xmlns:dc="http://purl.org/dc/elements/1.1/"
   xmlns:cc="http://creativecommons.org/ns#"
   xmlns:rdf="http://www.w3.org/1999/02/22-rdf-syntax-ns#"
   xmlns:svg="http://www.w3.org/2000/svg"
   xmlns="http://www.w3.org/2000/svg"
   height="100"
   width="100"
   id="svg2"
   xml:space="preserve"
   enable-background="new 0 0 100 100"
   viewBox="0 0 100 100"
   y="0px"
   x="0px"
   version="1.1"><metadata
     id="metadata24"><rdf:RDF><cc:Work
         rdf:about=""><dc:format>image/svg+xml</dc:format><dc:type
           rdf:resource="http://purl.org/dc/dcmitype/StillImage" /><dc:title></dc:title></cc:Work></rdf:RDF></metadata><defs
     id="defs22" /><g
     transform="translate(0,-5e-4)"
     id="g4"><path
       id="path6"
       d="m 44.96,27.258 c -0.538,-0.259 -1.187,-0.032 -1.447,0.508 -0.259,0.539 -0.032,1.186 0.508,1.447 0.067,0.032 6.844,3.349 11.261,10.418 0.205,0.33 0.558,0.511 0.92,0.511 0.196,0 0.395,-0.054 0.574,-0.165 0.508,-0.318 0.66,-0.986 0.345,-1.494 C 52.372,30.886 45.26,27.402 44.96,27.258 Z" /><path
       id="path8"
       d="m 85.522,48.019 c -0.519,-0.163 -1.041,-0.244 -1.557,-0.244 -1.831,0 -3.294,1.032 -3.816,2.694 -0.236,0.748 -0.275,1.542 -0.275,1.551 -0.021,0.438 -0.245,0.846 -0.606,1.095 -0.361,0.249 -0.821,0.319 -1.237,0.182 l -9.757,-3.181 c 0.002,0.009 0.002,0.021 0.004,0.03 -1.613,-0.413 -1.98,0.554 -2.447,2.212 -0.472,1.688 -0.886,3.252 0.786,3.789 0.015,0.004 0.031,0.011 0.046,0.013 -0.008,0.01 -0.017,0.021 -0.022,0.033 l 9.506,2.959 c 0.42,0.134 0.755,0.456 0.905,0.869 0.15,0.416 0.096,0.878 -0.145,1.248 0,0 -0.295,0.47 -0.522,1.193 -0.769,2.455 0.972,4.219 3.039,4.869 0.587,0.184 1.149,0.288 1.672,0.288 l 0,0 c 1.59,0 2.655,-0.846 3.172,-2.491 0.343,-1.093 0.907,-3.803 -1.272,-5.318 -0.859,-0.594 -0.988,-1.436 -0.823,-2.022 0.217,-0.77 0.926,-1.283 1.854,-1.34 2.033,-0.119 4.046,-1.872 4.422,-3.302 0.608,-2.327 -0.569,-4.387 -2.927,-5.127 z" /><path
       id="path10"
       d="m 31.594,18.252 c -0.891,-0.281 -1.795,-0.422 -2.687,-0.422 -6.111,0 -11.712,6.671 -15.363,18.305 -1.879,5.987 -2.616,11.358 -2.129,15.533 0.734,6.305 4.061,8.625 6.72,9.461 0.89,0.277 1.789,0.418 2.676,0.418 3.29,0 6.372,-1.862 9.158,-5.534 2.352,-3.1 4.47,-7.523 6.125,-12.799 1.885,-6.003 2.637,-11.366 2.175,-15.51 -0.703,-6.301 -4.018,-8.618 -6.675,-9.452 z m 1.746,24.099 c -3.207,10.214 -7.89,16.312 -12.529,16.312 -0.594,0 -1.202,-0.098 -1.812,-0.288 -2.684,-0.842 -4.271,-3.212 -4.718,-7.04 -0.44,-3.775 0.257,-8.731 2.016,-14.334 3.201,-10.197 7.915,-16.284 12.61,-16.284 0.598,0 1.21,0.097 1.821,0.289 2.675,0.84 4.247,3.2 4.671,7.019 0.418,3.747 -0.295,8.703 -2.059,14.326 z" /><path
       id="path12"
       d="m 49.999,1.432 c -26.823,0 -48.568,21.746 -48.568,48.569 0,26.822 21.745,48.568 48.568,48.568 26.824,0 48.57,-21.746 48.57,-48.568 0,-26.823 -21.746,-48.569 -48.57,-48.569 z m 36.084,57.452 c 2.019,2.619 1.222,5.985 0.873,7.091 -0.873,2.788 -3.065,4.464 -5.861,4.464 l 0,0 c -0.81,0 -1.655,-0.148 -2.515,-0.418 -3.966,-1.245 -6.021,-4.779 -4.884,-8.396 0.025,-0.086 0.053,-0.172 0.082,-0.253 L 62.768,57.94 c -2.043,0.548 -4.231,1.593 -6.689,2.763 -5.455,2.594 -12.245,5.833 -22.007,5.833 -0.001,0 -0.001,0 -0.003,0 -5.264,0 -10.739,-0.929 -16.735,-2.812 0,0 -0.756,-0.261 -0.855,-0.315 -8.008,-3.151 -10.082,-13.55 -5.52,-28.084 4.032,-12.844 10.561,-20.21 17.909,-20.21 1.782,0 3.402,0.514 3.523,0.552 0.008,0.003 0.016,0.004 0.021,0.006 0.009,0.004 0.017,0.006 0.025,0.01 21.345,6.706 26.896,17.568 30.953,25.499 1.065,2.089 2.015,3.941 3.104,5.388 l 10.831,3.533 c 0.038,-0.156 0.082,-0.316 0.134,-0.476 0.891,-2.839 3.444,-4.672 6.506,-4.672 0.803,0 1.611,0.125 2.399,0.374 3.771,1.184 5.792,4.772 4.809,8.532 -0.585,2.225 -2.685,4.212 -5.09,5.023 z" /><ellipse
       id="ellipse14"
       ry="3.539"
       rx="6.8080001"
       cy="39.056999"
       cx="22.849001"
       transform="matrix(0.2994,-0.9541,0.9541,0.2994,-21.2571,49.1632)" /></g></svg>